<svg xmlns="http://www.w3.org/2000/svg" width="32" height="32" viewBox="0 0 32 32">
  <rect width="32" height="32" rx="4" fill="#111827" />
  <path d="M16 5C12.2 5 8.9 6.4 6.7 8.6C4.4 10.9 3 14.2 3 18C3 21.8 4.4 25.1 6.6 27.3C8.9 29.6 12.2 31 16 31C19.8 31 23.1 29.6 25.3 27.4C27.6 25.1 29 21.8 29 18C29 14.2 27.6 10.9 25.4 8.7C23.1 6.4 19.8 5 16 5Z" fill="#1F2937" />
  <path d="M16 6C13.8 8.3 12 11.5 11 15L16 18L21 15C20 11.5 18.2 8.3 16 6Z" fill="#EF4444" />
  <path d="M11 15C12 18.5 13.8 21.7 16 24C18.2 21.7 20 18.5 21 15L16 12L11 15Z" fill="#EF4444" />
</svg> 